<svg xmlns="http://www.w3.org/2000/svg" viewBox="0 0 680 420" fill="none"><defs><linearGradient id="bg" x1="50" y1="40" x2="600" y2="390" gradientUnits="userSpaceOnUse"><stop stop-color="#fff7ef"/><stop offset="1" stop-color="#e6f5f0"/></linearGradient><filter id="s" x="-20%" y="-20%" width="140%" height="140%"><feDropShadow dx="0" dy="16" stdDeviation="16" flood-color="#18324a" flood-opacity=".12"/></filter></defs><rect width="680" height="420" rx="30" fill="url(#bg)"/><g filter="url(#s)"><rect x="90" y="64" width="500" height="292" rx="23" fill="#fff"/><rect x="90" y="64" width="500" height="54" rx="23" fill="#152d46"/><circle cx="122" cy="91" r="5" fill="#ff887a"/><circle cx="140" cy="91" r="5" fill="#f3c85b"/><circle cx="158" cy="91" r="5" fill="#55d6bc"/><rect x="206" y="82" width="198" height="18" rx="9" fill="#31536b"/><rect x="122" y="142" width="178" height="178" rx="16" fill="#edf8f4"/><rect x="324" y="142" width="238" height="80" rx="16" fill="#fff1e9"/><rect x="324" y="240" width="112" height="80" rx="16" fill="#edf0fd"/><rect x="450" y="240" width="112" height="80" rx="16" fill="#e4f5f0"/><path d="M148 266c33-31 53-9 78-31 26-21 40 15 65-8" stroke="#1ca895" stroke-width="5" stroke-linecap="round"/><circle cx="460" cy="176" r="19" fill="#ff8a7b"/><rect x="491" y="165" width="41" height="10" rx="5" fill="#caa99b"/><rect x="491" y="183" width="57" height="8" rx="4" fill="#ecd4ca"/><path d="M348 286h64" stroke="#7668df" stroke-width="8" stroke-linecap="round"/><path d="M474 286h64" stroke="#1aa58f" stroke-width="8" stroke-linecap="round"/></g><circle cx="74" cy="316" r="28" fill="#ff8c7e"/><circle cx="608" cy="116" r="24" fill="#6ad9c1"/><path d="m60 316 10 10 18-23" stroke="#fff" stroke-width="5" stroke-linecap="round" stroke-linejoin="round"/></svg>
